<svg xmlns="http://www.w3.org/2000/svg" xmlns:xlink="http://www.w3.org/1999/xlink" width="250" zoomAndPan="magnify" viewBox="0 0 187.5 48.75" height="65" preserveAspectRatio="xMidYMid meet" version="1.0"><defs><g/><clipPath id="03469a0c9e"><path d="M 0.230469 0 L 186.773438 0 L 186.773438 48.5 L 0.230469 48.5 Z M 0.230469 0 " clip-rule="nonzero"/></clipPath><clipPath id="0af30bde45"><path d="M 3.136719 3.636719 L 44.363281 3.636719 L 44.363281 44.863281 L 3.136719 44.863281 Z M 3.136719 3.636719 " clip-rule="nonzero"/></clipPath><clipPath id="4698d901f3"><path d="M 9.851562 3.636719 L 37.648438 3.636719 C 41.355469 3.636719 44.363281 6.644531 44.363281 10.351562 L 44.363281 38.148438 C 44.363281 41.855469 41.355469 44.863281 37.648438 44.863281 L 9.851562 44.863281 C 6.144531 44.863281 3.136719 41.855469 3.136719 38.148438 L 3.136719 10.351562 C 3.136719 6.644531 6.144531 3.636719 9.851562 3.636719 Z M 9.851562 3.636719 " clip-rule="nonzero"/></clipPath><clipPath id="d2b82a0665"><path d="M 3.136719 3.636719 L 44.175781 3.636719 L 44.175781 44.675781 L 3.136719 44.675781 Z M 3.136719 3.636719 " clip-rule="nonzero"/></clipPath><clipPath id="30b2f5fbd2"><path d="M 9.851562 3.636719 L 37.648438 3.636719 C 41.355469 3.636719 44.363281 6.644531 44.363281 10.351562 L 44.363281 38.148438 C 44.363281 41.855469 41.355469 44.863281 37.648438 44.863281 L 9.851562 44.863281 C 6.144531 44.863281 3.136719 41.855469 3.136719 38.148438 L 3.136719 10.351562 C 3.136719 6.644531 6.144531 3.636719 9.851562 3.636719 Z M 9.851562 3.636719 " clip-rule="nonzero"/></clipPath><clipPath id="c5525662fb"><path d="M 10.839844 29.484375 L 22.78125 29.484375 L 22.78125 37.691406 L 10.839844 37.691406 Z M 10.839844 29.484375 " clip-rule="nonzero"/></clipPath><clipPath id="89664478fd"><path d="M 22.824219 20.328125 L 40 20.328125 L 40 37.660156 L 22.824219 37.660156 Z M 22.824219 20.328125 " clip-rule="nonzero"/></clipPath><clipPath id="e307fa09bd"><path d="M 7.5 12.148438 L 24.675781 12.148438 L 24.675781 29.484375 L 7.5 29.484375 Z M 7.5 12.148438 " clip-rule="nonzero"/></clipPath><clipPath id="30f4bf708e"><path d="M 22.824219 20.328125 L 24.675781 20.328125 L 24.675781 29.484375 L 22.824219 29.484375 Z M 22.824219 20.328125 " clip-rule="nonzero"/></clipPath><clipPath id="fa3e2039ec"><path d="M 24.710938 12.113281 L 36.652344 12.113281 L 36.652344 20.320312 L 24.710938 20.320312 Z M 24.710938 12.113281 " clip-rule="nonzero"/></clipPath></defs><g clip-path="url(#03469a0c9e)"><path fill="#ffffff" d="M 0.230469 0 L 186.773438 0 L 186.773438 48.5 L 0.230469 48.5 Z M 0.230469 0 " fill-opacity="1" fill-rule="nonzero"/><path fill="#f8f9fa" d="M 0.230469 0 L 186.773438 0 L 186.773438 48.5 L 0.230469 48.5 Z M 0.230469 0 " fill-opacity="1" fill-rule="nonzero"/></g><g clip-path="url(#0af30bde45)"><g clip-path="url(#4698d901f3)"><path fill="#ffedee" d="M 3.136719 3.636719 L 44.363281 3.636719 L 44.363281 44.863281 L 3.136719 44.863281 Z M 3.136719 3.636719 " fill-opacity="1" fill-rule="nonzero"/></g></g><g clip-path="url(#d2b82a0665)"><g clip-path="url(#30b2f5fbd2)"><path stroke-linecap="butt" transform="matrix(0.746173, 0, 0, 0.746173, 3.136701, 3.637598)" fill="none" stroke-linejoin="miter" d="M 8.999063 -0.00117772 L 46.251628 -0.00117772 C 51.219684 -0.00117772 55.250667 4.029805 55.250667 8.997861 L 55.250667 46.250426 C 55.250667 51.218482 51.219684 55.249465 46.251628 55.249465 L 8.999063 55.249465 C 4.031007 55.249465 0.0000242953 51.218482 0.0000242953 46.250426 L 0.0000242953 8.997861 C 0.0000242953 4.029805 4.031007 -0.00117772 8.999063 -0.00117772 Z M 8.999063 -0.00117772 " stroke="#131413" stroke-width="2" stroke-opacity="1" stroke-miterlimit="4"/></g></g><g fill="#ec5e65" fill-opacity="1"><g transform="translate(47.347474, 24.149838)"><g><path d="M 9.5 0 C 9.320312 0 9.203125 -0.0859375 9.140625 -0.265625 L 8.625 -1.984375 C 8.613281 -2.046875 8.578125 -2.078125 8.515625 -2.078125 L 3.953125 -2.078125 C 3.890625 -2.078125 3.851562 -2.046875 3.84375 -1.984375 L 3.328125 -0.265625 C 3.265625 -0.0859375 3.144531 0 2.96875 0 L 0.8125 0 C 0.707031 0 0.628906 -0.03125 0.578125 -0.09375 C 0.523438 -0.164062 0.519531 -0.253906 0.5625 -0.359375 L 4.515625 -12.75 C 4.578125 -12.914062 4.695312 -13 4.875 -13 L 7.59375 -13 C 7.769531 -13 7.890625 -12.914062 7.953125 -12.75 L 11.90625 -0.359375 C 11.914062 -0.328125 11.921875 -0.285156 11.921875 -0.234375 C 11.921875 -0.160156 11.894531 -0.101562 11.84375 -0.0625 C 11.800781 -0.0195312 11.738281 0 11.65625 0 Z M 4.5 -4.234375 C 4.488281 -4.148438 4.519531 -4.109375 4.59375 -4.109375 L 7.875 -4.109375 C 7.945312 -4.109375 7.976562 -4.148438 7.96875 -4.234375 L 6.296875 -9.90625 C 6.285156 -9.945312 6.265625 -9.96875 6.234375 -9.96875 C 6.203125 -9.96875 6.175781 -9.945312 6.15625 -9.90625 Z M 4.5 -4.234375 "/></g></g></g><g fill="#ec5e65" fill-opacity="1"><g transform="translate(60.367329, 24.149838)"><g><path d="M 6.546875 -9.234375 C 6.546875 -9.441406 6.648438 -9.546875 6.859375 -9.546875 L 8.84375 -9.546875 C 9.050781 -9.546875 9.15625 -9.441406 9.15625 -9.234375 L 9.15625 -0.3125 C 9.15625 -0.101562 9.050781 0 8.84375 0 L 6.859375 0 C 6.648438 0 6.546875 -0.101562 6.546875 -0.3125 L 6.546875 -0.8125 C 6.546875 -0.863281 6.53125 -0.890625 6.5 -0.890625 C 6.46875 -0.898438 6.4375 -0.890625 6.40625 -0.859375 C 5.925781 -0.203125 5.164062 0.125 4.125 0.125 C 3.1875 0.125 2.410156 -0.15625 1.796875 -0.71875 C 1.191406 -1.289062 0.890625 -2.09375 0.890625 -3.125 L 0.890625 -9.234375 C 0.890625 -9.441406 0.992188 -9.546875 1.203125 -9.546875 L 3.171875 -9.546875 C 3.390625 -9.546875 3.5 -9.441406 3.5 -9.234375 L 3.5 -3.765625 C 3.5 -3.273438 3.628906 -2.875 3.890625 -2.5625 C 4.160156 -2.25 4.53125 -2.09375 5 -2.09375 C 5.414062 -2.09375 5.757812 -2.21875 6.03125 -2.46875 C 6.3125 -2.726562 6.484375 -3.0625 6.546875 -3.46875 Z M 6.546875 -9.234375 "/></g></g></g><g fill="#ec5e65" fill-opacity="1"><g transform="translate(71.047023, 24.149838)"><g><path d="M 6.453125 -7.765625 C 6.453125 -7.554688 6.34375 -7.453125 6.125 -7.453125 L 4.453125 -7.453125 C 4.378906 -7.453125 4.34375 -7.414062 4.34375 -7.34375 L 4.34375 -3.5 C 4.34375 -3.082031 4.425781 -2.773438 4.59375 -2.578125 C 4.757812 -2.390625 5.03125 -2.296875 5.40625 -2.296875 L 5.921875 -2.296875 C 6.140625 -2.296875 6.25 -2.191406 6.25 -1.984375 L 6.25 -0.390625 C 6.25 -0.191406 6.140625 -0.0820312 5.921875 -0.0625 C 5.453125 -0.03125 5.113281 -0.015625 4.90625 -0.015625 C 3.875 -0.015625 3.101562 -0.1875 2.59375 -0.53125 C 2.09375 -0.882812 1.835938 -1.53125 1.828125 -2.46875 L 1.828125 -7.34375 C 1.828125 -7.414062 1.785156 -7.453125 1.703125 -7.453125 L 0.765625 -7.453125 C 0.554688 -7.453125 0.453125 -7.554688 0.453125 -7.765625 L 0.453125 -9.234375 C 0.453125 -9.441406 0.554688 -9.546875 0.765625 -9.546875 L 1.703125 -9.546875 C 1.785156 -9.546875 1.828125 -9.582031 1.828125 -9.65625 L 1.828125 -11.765625 C 1.828125 -11.972656 1.929688 -12.078125 2.140625 -12.078125 L 4.03125 -12.078125 C 4.238281 -12.078125 4.34375 -11.972656 4.34375 -11.765625 L 4.34375 -9.65625 C 4.34375 -9.582031 4.378906 -9.546875 4.453125 -9.546875 L 6.125 -9.546875 C 6.34375 -9.546875 6.453125 -9.441406 6.453125 -9.234375 Z M 6.453125 -7.765625 "/></g></g></g><g fill="#ec5e65" fill-opacity="1"><g transform="translate(78.662208, 24.149838)"><g><path d="M 5.203125 0.15625 C 4.148438 0.15625 3.25 -0.113281 2.5 -0.65625 C 1.757812 -1.207031 1.253906 -1.953125 0.984375 -2.890625 C 0.804688 -3.472656 0.71875 -4.109375 0.71875 -4.796875 C 0.71875 -5.546875 0.8125 -6.203125 1 -6.765625 C 1.289062 -7.679688 1.800781 -8.398438 2.53125 -8.921875 C 3.269531 -9.441406 4.164062 -9.703125 5.21875 -9.703125 C 6.238281 -9.703125 7.109375 -9.441406 7.828125 -8.921875 C 8.554688 -8.398438 9.0625 -7.6875 9.34375 -6.78125 C 9.53125 -6.207031 9.625 -5.554688 9.625 -4.828125 C 9.625 -4.179688 9.539062 -3.554688 9.375 -2.953125 C 9.09375 -1.984375 8.582031 -1.222656 7.84375 -0.671875 C 7.113281 -0.117188 6.234375 0.15625 5.203125 0.15625 Z M 5.203125 -2.09375 C 5.597656 -2.09375 5.9375 -2.21875 6.21875 -2.46875 C 6.507812 -2.71875 6.71875 -3.0625 6.84375 -3.5 C 6.9375 -3.832031 6.984375 -4.265625 6.984375 -4.796875 C 6.984375 -5.316406 6.9375 -5.753906 6.84375 -6.109375 C 6.71875 -6.535156 6.507812 -6.863281 6.21875 -7.09375 C 5.9375 -7.332031 5.585938 -7.453125 5.171875 -7.453125 C 4.753906 -7.453125 4.40625 -7.332031 4.125 -7.09375 C 3.84375 -6.863281 3.640625 -6.535156 3.515625 -6.109375 C 3.410156 -5.753906 3.359375 -5.316406 3.359375 -4.796875 C 3.359375 -4.285156 3.410156 -3.851562 3.515625 -3.5 C 3.640625 -3.0625 3.84375 -2.71875 4.125 -2.46875 C 4.414062 -2.21875 4.773438 -2.09375 5.203125 -2.09375 Z M 5.203125 -2.09375 "/></g></g></g><g fill="#30b230" fill-opacity="1"><g transform="translate(89.576227, 24.149838)"><g/></g></g><g fill="#000000" fill-opacity="1"><g transform="translate(93.855065, 24.149838)"><g><path d="M 10.015625 -13 C 10.222656 -13 10.328125 -12.894531 10.328125 -12.6875 L 10.328125 -11.046875 C 10.328125 -10.835938 10.222656 -10.734375 10.015625 -10.734375 L 6.796875 -10.734375 C 6.722656 -10.734375 6.6875 -10.695312 6.6875 -10.625 L 6.6875 -0.3125 C 6.6875 -0.101562 6.582031 0 6.375 0 L 4.390625 0 C 4.171875 0 4.0625 -0.101562 4.0625 -0.3125 L 4.0625 -10.625 C 4.0625 -10.695312 4.023438 -10.734375 3.953125 -10.734375 L 0.84375 -10.734375 C 0.625 -10.734375 0.515625 -10.835938 0.515625 -11.046875 L 0.515625 -12.6875 C 0.515625 -12.894531 0.625 -13 0.84375 -13 Z M 10.015625 -13 "/></g></g></g><g fill="#000000" fill-opacity="1"><g transform="translate(105.277665, 24.149838)"><g><path d="M 5.71875 -9.671875 C 6.113281 -9.671875 6.441406 -9.597656 6.703125 -9.453125 C 6.847656 -9.378906 6.90625 -9.25 6.875 -9.0625 L 6.515625 -7.109375 C 6.503906 -7.003906 6.46875 -6.9375 6.40625 -6.90625 C 6.351562 -6.882812 6.269531 -6.882812 6.15625 -6.90625 C 5.957031 -6.957031 5.773438 -6.984375 5.609375 -6.984375 C 5.523438 -6.984375 5.382812 -6.972656 5.1875 -6.953125 C 4.738281 -6.910156 4.359375 -6.742188 4.046875 -6.453125 C 3.734375 -6.160156 3.578125 -5.773438 3.578125 -5.296875 L 3.578125 -0.3125 C 3.578125 -0.101562 3.472656 0 3.265625 0 L 1.28125 0 C 1.070312 0 0.96875 -0.101562 0.96875 -0.3125 L 0.96875 -9.234375 C 0.96875 -9.441406 1.070312 -9.546875 1.28125 -9.546875 L 3.265625 -9.546875 C 3.472656 -9.546875 3.578125 -9.441406 3.578125 -9.234375 L 3.578125 -8.65625 C 3.578125 -8.601562 3.585938 -8.570312 3.609375 -8.5625 C 3.640625 -8.550781 3.675781 -8.566406 3.71875 -8.609375 C 4.207031 -9.316406 4.875 -9.671875 5.71875 -9.671875 Z M 5.71875 -9.671875 "/></g></g></g><g fill="#000000" fill-opacity="1"><g transform="translate(112.948572, 24.149838)"><g><path d="M 4.796875 -9.703125 C 5.597656 -9.703125 6.3125 -9.5625 6.9375 -9.28125 C 7.570312 -9 8.066406 -8.613281 8.421875 -8.125 C 8.773438 -7.644531 8.953125 -7.109375 8.953125 -6.515625 L 8.953125 -0.3125 C 8.953125 -0.101562 8.847656 0 8.640625 0 L 6.65625 0 C 6.4375 0 6.328125 -0.101562 6.328125 -0.3125 L 6.328125 -0.765625 C 6.328125 -0.816406 6.316406 -0.84375 6.296875 -0.84375 C 6.273438 -0.851562 6.242188 -0.835938 6.203125 -0.796875 C 5.628906 -0.160156 4.78125 0.15625 3.65625 0.15625 C 2.707031 0.15625 1.941406 -0.078125 1.359375 -0.546875 C 0.773438 -1.023438 0.484375 -1.722656 0.484375 -2.640625 C 0.484375 -3.585938 0.816406 -4.320312 1.484375 -4.84375 C 2.148438 -5.375 3.101562 -5.640625 4.34375 -5.640625 L 6.21875 -5.640625 C 6.289062 -5.640625 6.328125 -5.679688 6.328125 -5.765625 L 6.328125 -6.15625 C 6.328125 -6.5625 6.203125 -6.878906 5.953125 -7.109375 C 5.703125 -7.335938 5.332031 -7.453125 4.84375 -7.453125 C 4.476562 -7.453125 4.171875 -7.390625 3.921875 -7.265625 C 3.679688 -7.140625 3.519531 -6.96875 3.4375 -6.75 C 3.363281 -6.570312 3.238281 -6.488281 3.0625 -6.5 L 1 -6.765625 C 0.90625 -6.773438 0.828125 -6.800781 0.765625 -6.84375 C 0.710938 -6.882812 0.691406 -6.941406 0.703125 -7.015625 C 0.765625 -7.523438 0.976562 -7.984375 1.34375 -8.390625 C 1.707031 -8.804688 2.191406 -9.128906 2.796875 -9.359375 C 3.398438 -9.585938 4.066406 -9.703125 4.796875 -9.703125 Z M 4.421875 -1.796875 C 4.953125 -1.796875 5.398438 -1.9375 5.765625 -2.21875 C 6.140625 -2.507812 6.328125 -2.878906 6.328125 -3.328125 L 6.328125 -3.96875 C 6.328125 -4.050781 6.289062 -4.09375 6.21875 -4.09375 L 4.90625 -4.09375 C 4.34375 -4.09375 3.898438 -3.984375 3.578125 -3.765625 C 3.265625 -3.554688 3.109375 -3.257812 3.109375 -2.875 C 3.109375 -2.539062 3.226562 -2.273438 3.46875 -2.078125 C 3.707031 -1.890625 4.023438 -1.796875 4.421875 -1.796875 Z M 4.421875 -1.796875 "/></g></g></g><g fill="#000000" fill-opacity="1"><g transform="translate(123.31253, 24.149838)"><g><path d="M 5.9375 -9.703125 C 6.9375 -9.703125 7.738281 -9.394531 8.34375 -8.78125 C 8.945312 -8.175781 9.25 -7.351562 9.25 -6.3125 L 9.25 -0.3125 C 9.25 -0.101562 9.144531 0 8.9375 0 L 6.953125 0 C 6.734375 0 6.625 -0.101562 6.625 -0.3125 L 6.625 -5.78125 C 6.625 -6.269531 6.488281 -6.671875 6.21875 -6.984375 C 5.945312 -7.296875 5.582031 -7.453125 5.125 -7.453125 C 4.664062 -7.453125 4.289062 -7.296875 4 -6.984375 C 3.71875 -6.671875 3.578125 -6.269531 3.578125 -5.78125 L 3.578125 -0.3125 C 3.578125 -0.101562 3.472656 0 3.265625 0 L 1.28125 0 C 1.070312 0 0.96875 -0.101562 0.96875 -0.3125 L 0.96875 -9.234375 C 0.96875 -9.441406 1.070312 -9.546875 1.28125 -9.546875 L 3.265625 -9.546875 C 3.472656 -9.546875 3.578125 -9.441406 3.578125 -9.234375 L 3.578125 -8.71875 C 3.578125 -8.664062 3.585938 -8.632812 3.609375 -8.625 C 3.640625 -8.613281 3.671875 -8.625 3.703125 -8.65625 C 4.203125 -9.351562 4.945312 -9.703125 5.9375 -9.703125 Z M 5.9375 -9.703125 "/></g></g></g><g fill="#000000" fill-opacity="1"><g transform="translate(134.029363, 24.149838)"><g><path d="M 4.78125 0.125 C 3.945312 0.125 3.21875 0.0078125 2.59375 -0.21875 C 1.976562 -0.457031 1.503906 -0.785156 1.171875 -1.203125 C 0.835938 -1.628906 0.671875 -2.109375 0.671875 -2.640625 L 0.671875 -2.734375 C 0.671875 -2.941406 0.773438 -3.046875 0.984375 -3.046875 L 2.859375 -3.046875 C 3.066406 -3.046875 3.171875 -3.007812 3.171875 -2.9375 L 3.171875 -2.8125 C 3.171875 -2.53125 3.316406 -2.296875 3.609375 -2.109375 C 3.910156 -1.921875 4.289062 -1.828125 4.75 -1.828125 C 5.175781 -1.828125 5.519531 -1.90625 5.78125 -2.0625 C 6.039062 -2.21875 6.171875 -2.425781 6.171875 -2.6875 C 6.171875 -2.914062 6.054688 -3.082031 5.828125 -3.1875 C 5.609375 -3.300781 5.242188 -3.421875 4.734375 -3.546875 C 4.128906 -3.710938 3.675781 -3.851562 3.375 -3.96875 C 2.570312 -4.25 1.9375 -4.585938 1.46875 -4.984375 C 1 -5.378906 0.765625 -5.945312 0.765625 -6.6875 C 0.765625 -7.601562 1.125 -8.328125 1.84375 -8.859375 C 2.5625 -9.398438 3.5 -9.671875 4.65625 -9.671875 C 5.457031 -9.671875 6.15625 -9.546875 6.75 -9.296875 C 7.351562 -9.046875 7.816406 -8.691406 8.140625 -8.234375 C 8.472656 -7.773438 8.640625 -7.253906 8.640625 -6.671875 C 8.640625 -6.609375 8.609375 -6.554688 8.546875 -6.515625 C 8.492188 -6.472656 8.421875 -6.453125 8.328125 -6.453125 L 6.5 -6.453125 C 6.289062 -6.453125 6.1875 -6.488281 6.1875 -6.5625 L 6.1875 -6.671875 C 6.1875 -6.941406 6.050781 -7.171875 5.78125 -7.359375 C 5.507812 -7.546875 5.144531 -7.640625 4.6875 -7.640625 C 4.269531 -7.640625 3.925781 -7.5625 3.65625 -7.40625 C 3.394531 -7.257812 3.265625 -7.054688 3.265625 -6.796875 C 3.265625 -6.546875 3.390625 -6.359375 3.640625 -6.234375 C 3.898438 -6.117188 4.320312 -5.992188 4.90625 -5.859375 C 5.257812 -5.773438 5.601562 -5.679688 5.9375 -5.578125 C 6.832031 -5.316406 7.535156 -4.976562 8.046875 -4.5625 C 8.554688 -4.15625 8.8125 -3.5625 8.8125 -2.78125 C 8.8125 -1.863281 8.441406 -1.148438 7.703125 -0.640625 C 6.972656 -0.128906 6 0.125 4.78125 0.125 Z M 4.78125 0.125 "/></g></g></g><g fill="#000000" fill-opacity="1"><g transform="translate(143.929001, 24.149838)"><g><path d="M 1.3125 0 C 1.101562 0 1 -0.101562 1 -0.3125 L 1 -12.6875 C 1 -12.894531 1.101562 -13 1.3125 -13 L 3.3125 -13 C 3.519531 -13 3.625 -12.894531 3.625 -12.6875 L 3.625 -0.3125 C 3.625 -0.101562 3.519531 0 3.3125 0 Z M 1.3125 0 "/></g></g></g><g fill="#000000" fill-opacity="1"><g transform="translate(149.111153, 24.149838)"><g><path d="M 4.796875 -9.703125 C 5.597656 -9.703125 6.3125 -9.5625 6.9375 -9.28125 C 7.570312 -9 8.066406 -8.613281 8.421875 -8.125 C 8.773438 -7.644531 8.953125 -7.109375 8.953125 -6.515625 L 8.953125 -0.3125 C 8.953125 -0.101562 8.847656 0 8.640625 0 L 6.65625 0 C 6.4375 0 6.328125 -0.101562 6.328125 -0.3125 L 6.328125 -0.765625 C 6.328125 -0.816406 6.316406 -0.84375 6.296875 -0.84375 C 6.273438 -0.851562 6.242188 -0.835938 6.203125 -0.796875 C 5.628906 -0.160156 4.78125 0.15625 3.65625 0.15625 C 2.707031 0.15625 1.941406 -0.078125 1.359375 -0.546875 C 0.773438 -1.023438 0.484375 -1.722656 0.484375 -2.640625 C 0.484375 -3.585938 0.816406 -4.320312 1.484375 -4.84375 C 2.148438 -5.375 3.101562 -5.640625 4.34375 -5.640625 L 6.21875 -5.640625 C 6.289062 -5.640625 6.328125 -5.679688 6.328125 -5.765625 L 6.328125 -6.15625 C 6.328125 -6.5625 6.203125 -6.878906 5.953125 -7.109375 C 5.703125 -7.335938 5.332031 -7.453125 4.84375 -7.453125 C 4.476562 -7.453125 4.171875 -7.390625 3.921875 -7.265625 C 3.679688 -7.140625 3.519531 -6.96875 3.4375 -6.75 C 3.363281 -6.570312 3.238281 -6.488281 3.0625 -6.5 L 1 -6.765625 C 0.90625 -6.773438 0.828125 -6.800781 0.765625 -6.84375 C 0.710938 -6.882812 0.691406 -6.941406 0.703125 -7.015625 C 0.765625 -7.523438 0.976562 -7.984375 1.34375 -8.390625 C 1.707031 -8.804688 2.191406 -9.128906 2.796875 -9.359375 C 3.398438 -9.585938 4.066406 -9.703125 4.796875 -9.703125 Z M 4.421875 -1.796875 C 4.953125 -1.796875 5.398438 -1.9375 5.765625 -2.21875 C 6.140625 -2.507812 6.328125 -2.878906 6.328125 -3.328125 L 6.328125 -3.96875 C 6.328125 -4.050781 6.289062 -4.09375 6.21875 -4.09375 L 4.90625 -4.09375 C 4.34375 -4.09375 3.898438 -3.984375 3.578125 -3.765625 C 3.265625 -3.554688 3.109375 -3.257812 3.109375 -2.875 C 3.109375 -2.539062 3.226562 -2.273438 3.46875 -2.078125 C 3.707031 -1.890625 4.023438 -1.796875 4.421875 -1.796875 Z M 4.421875 -1.796875 "/></g></g></g><g fill="#000000" fill-opacity="1"><g transform="translate(159.475108, 24.149838)"><g><path d="M 6.453125 -7.765625 C 6.453125 -7.554688 6.34375 -7.453125 6.125 -7.453125 L 4.453125 -7.453125 C 4.378906 -7.453125 4.34375 -7.414062 4.34375 -7.34375 L 4.34375 -3.5 C 4.34375 -3.082031 4.425781 -2.773438 4.59375 -2.578125 C 4.757812 -2.390625 5.03125 -2.296875 5.40625 -2.296875 L 5.921875 -2.296875 C 6.140625 -2.296875 6.25 -2.191406 6.25 -1.984375 L 6.25 -0.390625 C 6.25 -0.191406 6.140625 -0.0820312 5.921875 -0.0625 C 5.453125 -0.03125 5.113281 -0.015625 4.90625 -0.015625 C 3.875 -0.015625 3.101562 -0.1875 2.59375 -0.53125 C 2.09375 -0.882812 1.835938 -1.53125 1.828125 -2.46875 L 1.828125 -7.34375 C 1.828125 -7.414062 1.785156 -7.453125 1.703125 -7.453125 L 0.765625 -7.453125 C 0.554688 -7.453125 0.453125 -7.554688 0.453125 -7.765625 L 0.453125 -9.234375 C 0.453125 -9.441406 0.554688 -9.546875 0.765625 -9.546875 L 1.703125 -9.546875 C 1.785156 -9.546875 1.828125 -9.582031 1.828125 -9.65625 L 1.828125 -11.765625 C 1.828125 -11.972656 1.929688 -12.078125 2.140625 -12.078125 L 4.03125 -12.078125 C 4.238281 -12.078125 4.34375 -11.972656 4.34375 -11.765625 L 4.34375 -9.65625 C 4.34375 -9.582031 4.378906 -9.546875 4.453125 -9.546875 L 6.125 -9.546875 C 6.34375 -9.546875 6.453125 -9.441406 6.453125 -9.234375 Z M 6.453125 -7.765625 "/></g></g></g><g fill="#000000" fill-opacity="1"><g transform="translate(167.090294, 24.149838)"><g><path d="M 5.578125 -2.0625 C 6.390625 -2.101562 7.015625 -2.390625 7.453125 -2.921875 C 7.523438 -3.003906 7.601562 -3.046875 7.6875 -3.046875 C 7.757812 -3.046875 7.828125 -3.015625 7.890625 -2.953125 L 8.953125 -1.9375 C 9.023438 -1.863281 9.0625 -1.785156 9.0625 -1.703125 C 9.0625 -1.617188 9.035156 -1.546875 8.984375 -1.484375 C 8.578125 -0.972656 8.054688 -0.570312 7.421875 -0.28125 C 6.785156 0.0078125 6.085938 0.15625 5.328125 0.15625 C 4.191406 0.15625 3.25 -0.132812 2.5 -0.71875 C 1.75 -1.300781 1.242188 -2.101562 0.984375 -3.125 C 0.835938 -3.664062 0.765625 -4.238281 0.765625 -4.84375 C 0.765625 -5.5625 0.832031 -6.171875 0.96875 -6.671875 C 1.21875 -7.585938 1.710938 -8.320312 2.453125 -8.875 C 3.203125 -9.4375 4.09375 -9.71875 5.125 -9.71875 C 6.34375 -9.71875 7.304688 -9.359375 8.015625 -8.640625 C 8.722656 -7.921875 9.1875 -6.910156 9.40625 -5.609375 C 9.445312 -5.203125 9.484375 -4.75 9.515625 -4.25 C 9.515625 -4.039062 9.410156 -3.9375 9.203125 -3.9375 L 3.5 -3.9375 C 3.414062 -3.9375 3.375 -3.898438 3.375 -3.828125 C 3.414062 -3.566406 3.460938 -3.375 3.515625 -3.25 C 3.640625 -2.863281 3.882812 -2.566406 4.25 -2.359375 C 4.613281 -2.160156 5.054688 -2.0625 5.578125 -2.0625 Z M 5.09375 -7.453125 C 4.695312 -7.453125 4.363281 -7.351562 4.09375 -7.15625 C 3.832031 -6.96875 3.648438 -6.703125 3.546875 -6.359375 C 3.484375 -6.117188 3.445312 -5.960938 3.4375 -5.890625 C 3.425781 -5.816406 3.457031 -5.78125 3.53125 -5.78125 L 6.6875 -5.78125 C 6.75 -5.78125 6.78125 -5.804688 6.78125 -5.859375 C 6.78125 -5.992188 6.753906 -6.132812 6.703125 -6.28125 C 6.597656 -6.632812 6.40625 -6.914062 6.125 -7.125 C 5.851562 -7.34375 5.507812 -7.453125 5.09375 -7.453125 Z M 5.09375 -7.453125 "/></g></g></g><g fill="#646464" fill-opacity="1"><g transform="translate(48.321434, 38.269958)"><g><path d="M 0.609375 0 L -0.171875 0 L 3.109375 -6.15625 L 3.890625 -6.15625 L 5.125 0 L 4.34375 0 L 4.015625 -1.75 L 1.53125 -1.75 Z M 1.875 -2.40625 L 3.890625 -2.40625 L 3.375 -5.1875 L 3.3125 -5.1875 Z M 1.875 -2.40625 "/></g></g></g><g fill="#646464" fill-opacity="1"><g transform="translate(54.456898, 38.269958)"><g><path d="M 3.484375 -1.890625 L 3.953125 -4.625 L 4.65625 -4.625 L 3.890625 0 L 3.171875 0 L 3.3125 -0.78125 L 3.265625 -0.78125 C 3.117188 -0.550781 2.914062 -0.351562 2.65625 -0.1875 C 2.394531 -0.0195312 2.09375 0.0625 1.75 0.0625 C 1.3125 0.0625 0.972656 -0.078125 0.734375 -0.359375 C 0.503906 -0.648438 0.441406 -1.09375 0.546875 -1.6875 L 1.03125 -4.625 L 1.75 -4.625 L 1.265625 -1.734375 C 1.210938 -1.398438 1.265625 -1.128906 1.421875 -0.921875 C 1.578125 -0.722656 1.800781 -0.625 2.09375 -0.625 C 2.269531 -0.625 2.457031 -0.664062 2.65625 -0.75 C 2.851562 -0.84375 3.03125 -0.984375 3.1875 -1.171875 C 3.34375 -1.359375 3.441406 -1.597656 3.484375 -1.890625 Z M 3.484375 -1.890625 "/></g></g></g><g fill="#646464" fill-opacity="1"><g transform="translate(59.786005, 38.269958)"><g><path d="M 3.046875 -4.625 L 2.953125 -4.015625 L 1.953125 -4.015625 L 1.5 -1.328125 C 1.46875 -1.117188 1.472656 -0.960938 1.515625 -0.859375 C 1.554688 -0.765625 1.625 -0.703125 1.71875 -0.671875 C 1.8125 -0.640625 1.910156 -0.625 2.015625 -0.625 C 2.085938 -0.625 2.148438 -0.628906 2.203125 -0.640625 C 2.253906 -0.648438 2.296875 -0.65625 2.328125 -0.65625 L 2.375 -0.03125 C 2.3125 -0.0078125 2.234375 0.0078125 2.140625 0.03125 C 2.054688 0.0507812 1.945312 0.0625 1.8125 0.0625 C 1.613281 0.0625 1.425781 0.0195312 1.25 -0.0625 C 1.070312 -0.15625 0.9375 -0.289062 0.84375 -0.46875 C 0.75 -0.644531 0.722656 -0.863281 0.765625 -1.125 L 1.25 -4.015625 L 0.546875 -4.015625 L 0.65625 -4.625 L 1.34375 -4.625 L 1.53125 -5.71875 L 2.234375 -5.71875 L 2.046875 -4.625 Z M 3.046875 -4.625 "/></g></g></g><g fill="#646464" fill-opacity="1"><g transform="translate(63.273722, 38.269958)"><g><path d="M 2.171875 0.09375 C 1.753906 0.09375 1.398438 -0.00390625 1.109375 -0.203125 C 0.828125 -0.410156 0.625 -0.695312 0.5 -1.0625 C 0.382812 -1.425781 0.363281 -1.847656 0.4375 -2.328125 C 0.519531 -2.804688 0.675781 -3.21875 0.90625 -3.5625 C 1.132812 -3.914062 1.414062 -4.1875 1.75 -4.375 C 2.09375 -4.570312 2.46875 -4.671875 2.875 -4.671875 C 3.300781 -4.671875 3.65625 -4.566406 3.9375 -4.359375 C 4.226562 -4.160156 4.429688 -3.878906 4.546875 -3.515625 C 4.671875 -3.148438 4.691406 -2.722656 4.609375 -2.234375 C 4.535156 -1.765625 4.382812 -1.351562 4.15625 -1 C 3.925781 -0.65625 3.640625 -0.382812 3.296875 -0.1875 C 2.960938 0 2.585938 0.09375 2.171875 0.09375 Z M 2.1875 -0.546875 C 2.507812 -0.546875 2.789062 -0.628906 3.03125 -0.796875 C 3.269531 -0.960938 3.460938 -1.179688 3.609375 -1.453125 C 3.765625 -1.722656 3.867188 -2.015625 3.921875 -2.328125 C 3.972656 -2.628906 3.972656 -2.910156 3.921875 -3.171875 C 3.867188 -3.429688 3.753906 -3.640625 3.578125 -3.796875 C 3.410156 -3.960938 3.171875 -4.046875 2.859375 -4.046875 C 2.535156 -4.046875 2.253906 -3.957031 2.015625 -3.78125 C 1.773438 -3.613281 1.578125 -3.394531 1.421875 -3.125 C 1.273438 -2.851562 1.175781 -2.554688 1.125 -2.234375 C 1.082031 -1.929688 1.085938 -1.648438 1.140625 -1.390625 C 1.191406 -1.140625 1.300781 -0.9375 1.46875 -0.78125 C 1.632812 -0.625 1.875 -0.546875 2.1875 -0.546875 Z M 2.1875 -0.546875 "/></g></g></g><g fill="#646464" fill-opacity="1"><g transform="translate(68.735209, 38.269958)"><g/></g></g><g fill="#646464" fill-opacity="1"><g transform="translate(71.524879, 38.269958)"><g><path d="M 3.046875 -4.625 L 2.953125 -4.015625 L 1.953125 -4.015625 L 1.5 -1.328125 C 1.46875 -1.117188 1.472656 -0.960938 1.515625 -0.859375 C 1.554688 -0.765625 1.625 -0.703125 1.71875 -0.671875 C 1.8125 -0.640625 1.910156 -0.625 2.015625 -0.625 C 2.085938 -0.625 2.148438 -0.628906 2.203125 -0.640625 C 2.253906 -0.648438 2.296875 -0.65625 2.328125 -0.65625 L 2.375 -0.03125 C 2.3125 -0.0078125 2.234375 0.0078125 2.140625 0.03125 C 2.054688 0.0507812 1.945312 0.0625 1.8125 0.0625 C 1.613281 0.0625 1.425781 0.0195312 1.25 -0.0625 C 1.070312 -0.15625 0.9375 -0.289062 0.84375 -0.46875 C 0.75 -0.644531 0.722656 -0.863281 0.765625 -1.125 L 1.25 -4.015625 L 0.546875 -4.015625 L 0.65625 -4.625 L 1.34375 -4.625 L 1.53125 -5.71875 L 2.234375 -5.71875 L 2.046875 -4.625 Z M 3.046875 -4.625 "/></g></g></g><g fill="#646464" fill-opacity="1"><g transform="translate(75.012595, 38.269958)"><g><path d="M 0.265625 0 L 1.03125 -4.625 L 1.71875 -4.625 L 1.59375 -3.921875 L 1.640625 -3.921875 C 1.765625 -4.148438 1.945312 -4.332031 2.1875 -4.46875 C 2.4375 -4.613281 2.703125 -4.6875 2.984375 -4.6875 C 3.222656 -4.6875 3.40625 -4.628906 3.53125 -4.515625 L 3.203125 -3.9375 C 3.117188 -3.976562 2.984375 -4 2.796875 -4 C 2.578125 -4 2.367188 -3.953125 2.171875 -3.859375 C 1.984375 -3.765625 1.820312 -3.632812 1.6875 -3.46875 C 1.5625 -3.3125 1.484375 -3.128906 1.453125 -2.921875 L 0.96875 0 Z M 0.265625 0 "/></g></g></g><g fill="#646464" fill-opacity="1"><g transform="translate(78.668806, 38.269958)"><g><path d="M 1.609375 0.109375 C 1.316406 0.109375 1.0625 0.0546875 0.84375 -0.046875 C 0.625 -0.160156 0.457031 -0.320312 0.34375 -0.53125 C 0.238281 -0.75 0.210938 -1.007812 0.265625 -1.3125 C 0.304688 -1.570312 0.394531 -1.785156 0.53125 -1.953125 C 0.664062 -2.117188 0.828125 -2.25 1.015625 -2.34375 C 1.203125 -2.4375 1.40625 -2.503906 1.625 -2.546875 C 1.84375 -2.597656 2.0625 -2.640625 2.28125 -2.671875 C 2.570312 -2.703125 2.804688 -2.726562 2.984375 -2.75 C 3.160156 -2.769531 3.289062 -2.800781 3.375 -2.84375 C 3.46875 -2.894531 3.523438 -2.976562 3.546875 -3.09375 L 3.546875 -3.109375 C 3.597656 -3.410156 3.554688 -3.640625 3.421875 -3.796875 C 3.296875 -3.960938 3.070312 -4.046875 2.75 -4.046875 C 2.414062 -4.046875 2.132812 -3.972656 1.90625 -3.828125 C 1.675781 -3.679688 1.507812 -3.523438 1.40625 -3.359375 L 0.78125 -3.59375 C 0.945312 -3.875 1.144531 -4.09375 1.375 -4.25 C 1.601562 -4.40625 1.84375 -4.515625 2.09375 -4.578125 C 2.34375 -4.640625 2.582031 -4.671875 2.8125 -4.671875 C 2.957031 -4.671875 3.125 -4.65625 3.3125 -4.625 C 3.5 -4.59375 3.675781 -4.519531 3.84375 -4.40625 C 4.007812 -4.300781 4.132812 -4.140625 4.21875 -3.921875 C 4.300781 -3.703125 4.3125 -3.410156 4.25 -3.046875 L 3.734375 0 L 3.03125 0 L 3.140625 -0.625 L 3.109375 -0.625 C 3.035156 -0.519531 2.929688 -0.410156 2.796875 -0.296875 C 2.671875 -0.179688 2.507812 -0.0820312 2.3125 0 C 2.113281 0.0703125 1.878906 0.109375 1.609375 0.109375 Z M 1.8125 -0.53125 C 2.09375 -0.53125 2.335938 -0.582031 2.546875 -0.6875 C 2.765625 -0.800781 2.9375 -0.945312 3.0625 -1.125 C 3.195312 -1.300781 3.28125 -1.484375 3.3125 -1.671875 L 3.421875 -2.328125 C 3.378906 -2.285156 3.304688 -2.25 3.203125 -2.21875 C 3.097656 -2.195312 2.976562 -2.175781 2.84375 -2.15625 C 2.707031 -2.132812 2.578125 -2.113281 2.453125 -2.09375 C 2.328125 -2.082031 2.226562 -2.070312 2.15625 -2.0625 C 1.96875 -2.03125 1.785156 -1.988281 1.609375 -1.9375 C 1.441406 -1.882812 1.300781 -1.804688 1.1875 -1.703125 C 1.070312 -1.597656 1 -1.457031 0.96875 -1.28125 C 0.925781 -1.03125 0.984375 -0.84375 1.140625 -0.71875 C 1.304688 -0.59375 1.53125 -0.53125 1.8125 -0.53125 Z M 1.8125 -0.53125 "/></g></g></g><g fill="#646464" fill-opacity="1"><g transform="translate(83.853488, 38.269958)"><g><path d="M 1.4375 -2.78125 L 0.96875 0 L 0.265625 0 L 1.03125 -4.625 L 1.71875 -4.625 L 1.59375 -3.890625 L 1.65625 -3.890625 C 1.800781 -4.128906 1.992188 -4.316406 2.234375 -4.453125 C 2.484375 -4.597656 2.785156 -4.671875 3.140625 -4.671875 C 3.597656 -4.671875 3.945312 -4.523438 4.1875 -4.234375 C 4.4375 -3.953125 4.515625 -3.519531 4.421875 -2.9375 L 3.921875 0 L 3.21875 0 L 3.6875 -2.890625 C 3.75 -3.242188 3.703125 -3.523438 3.546875 -3.734375 C 3.398438 -3.941406 3.160156 -4.046875 2.828125 -4.046875 C 2.484375 -4.046875 2.179688 -3.9375 1.921875 -3.71875 C 1.671875 -3.5 1.507812 -3.1875 1.4375 -2.78125 Z M 1.4375 -2.78125 "/></g></g></g><g fill="#646464" fill-opacity="1"><g transform="translate(89.218699, 38.269958)"><g><path d="M 4.140625 -3.578125 L 3.46875 -3.40625 C 3.4375 -3.507812 3.390625 -3.613281 3.328125 -3.71875 C 3.273438 -3.820312 3.1875 -3.90625 3.0625 -3.96875 C 2.945312 -4.03125 2.785156 -4.0625 2.578125 -4.0625 C 2.296875 -4.0625 2.050781 -3.992188 1.84375 -3.859375 C 1.632812 -3.734375 1.515625 -3.570312 1.484375 -3.375 C 1.453125 -3.207031 1.488281 -3.070312 1.59375 -2.96875 C 1.707031 -2.863281 1.894531 -2.773438 2.15625 -2.703125 L 2.8125 -2.53125 C 3.601562 -2.332031 3.945312 -1.914062 3.84375 -1.28125 C 3.789062 -1.019531 3.671875 -0.785156 3.484375 -0.578125 C 3.304688 -0.367188 3.070312 -0.203125 2.78125 -0.078125 C 2.488281 0.0351562 2.160156 0.09375 1.796875 0.09375 C 1.328125 0.09375 0.953125 -0.00390625 0.671875 -0.203125 C 0.398438 -0.410156 0.253906 -0.710938 0.234375 -1.109375 L 0.953125 -1.28125 C 0.984375 -0.78125 1.296875 -0.53125 1.890625 -0.53125 C 2.222656 -0.53125 2.5 -0.597656 2.71875 -0.734375 C 2.9375 -0.878906 3.0625 -1.050781 3.09375 -1.25 C 3.15625 -1.570312 2.960938 -1.789062 2.515625 -1.90625 L 1.78125 -2.078125 C 1.375 -2.179688 1.085938 -2.335938 0.921875 -2.546875 C 0.753906 -2.753906 0.703125 -3.019531 0.765625 -3.34375 C 0.804688 -3.601562 0.914062 -3.832031 1.09375 -4.03125 C 1.28125 -4.238281 1.507812 -4.394531 1.78125 -4.5 C 2.0625 -4.613281 2.363281 -4.671875 2.6875 -4.671875 C 3.144531 -4.671875 3.484375 -4.570312 3.703125 -4.375 C 3.929688 -4.175781 4.078125 -3.910156 4.140625 -3.578125 Z M 4.140625 -3.578125 "/></g></g></g><g fill="#646464" fill-opacity="1"><g transform="translate(94.054358, 38.269958)"><g><path d="M 2 -6.15625 L 0.96875 0 L 0.265625 0 L 1.28125 -6.15625 Z M 2 -6.15625 "/></g></g></g><g fill="#646464" fill-opacity="1"><g transform="translate(96.470934, 38.269958)"><g><path d="M 1.609375 0.109375 C 1.316406 0.109375 1.0625 0.0546875 0.84375 -0.046875 C 0.625 -0.160156 0.457031 -0.320312 0.34375 -0.53125 C 0.238281 -0.75 0.210938 -1.007812 0.265625 -1.3125 C 0.304688 -1.570312 0.394531 -1.785156 0.53125 -1.953125 C 0.664062 -2.117188 0.828125 -2.25 1.015625 -2.34375 C 1.203125 -2.4375 1.40625 -2.503906 1.625 -2.546875 C 1.84375 -2.597656 2.0625 -2.640625 2.28125 -2.671875 C 2.570312 -2.703125 2.804688 -2.726562 2.984375 -2.75 C 3.160156 -2.769531 3.289062 -2.800781 3.375 -2.84375 C 3.46875 -2.894531 3.523438 -2.976562 3.546875 -3.09375 L 3.546875 -3.109375 C 3.597656 -3.410156 3.554688 -3.640625 3.421875 -3.796875 C 3.296875 -3.960938 3.070312 -4.046875 2.75 -4.046875 C 2.414062 -4.046875 2.132812 -3.972656 1.90625 -3.828125 C 1.675781 -3.679688 1.507812 -3.523438 1.40625 -3.359375 L 0.78125 -3.59375 C 0.945312 -3.875 1.144531 -4.09375 1.375 -4.25 C 1.601562 -4.40625 1.84375 -4.515625 2.09375 -4.578125 C 2.34375 -4.640625 2.582031 -4.671875 2.8125 -4.671875 C 2.957031 -4.671875 3.125 -4.65625 3.3125 -4.625 C 3.5 -4.59375 3.675781 -4.519531 3.84375 -4.40625 C 4.007812 -4.300781 4.132812 -4.140625 4.21875 -3.921875 C 4.300781 -3.703125 4.3125 -3.410156 4.25 -3.046875 L 3.734375 0 L 3.03125 0 L 3.140625 -0.625 L 3.109375 -0.625 C 3.035156 -0.519531 2.929688 -0.410156 2.796875 -0.296875 C 2.671875 -0.179688 2.507812 -0.0820312 2.3125 0 C 2.113281 0.0703125 1.878906 0.109375 1.609375 0.109375 Z M 1.8125 -0.53125 C 2.09375 -0.53125 2.335938 -0.582031 2.546875 -0.6875 C 2.765625 -0.800781 2.9375 -0.945312 3.0625 -1.125 C 3.195312 -1.300781 3.28125 -1.484375 3.3125 -1.671875 L 3.421875 -2.328125 C 3.378906 -2.285156 3.304688 -2.25 3.203125 -2.21875 C 3.097656 -2.195312 2.976562 -2.175781 2.84375 -2.15625 C 2.707031 -2.132812 2.578125 -2.113281 2.453125 -2.09375 C 2.328125 -2.082031 2.226562 -2.070312 2.15625 -2.0625 C 1.96875 -2.03125 1.785156 -1.988281 1.609375 -1.9375 C 1.441406 -1.882812 1.300781 -1.804688 1.1875 -1.703125 C 1.070312 -1.597656 1 -1.457031 0.96875 -1.28125 C 0.925781 -1.03125 0.984375 -0.84375 1.140625 -0.71875 C 1.304688 -0.59375 1.53125 -0.53125 1.8125 -0.53125 Z M 1.8125 -0.53125 "/></g></g></g><g fill="#646464" fill-opacity="1"><g transform="translate(101.655618, 38.269958)"><g><path d="M 3.046875 -4.625 L 2.953125 -4.015625 L 1.953125 -4.015625 L 1.5 -1.328125 C 1.46875 -1.117188 1.472656 -0.960938 1.515625 -0.859375 C 1.554688 -0.765625 1.625 -0.703125 1.71875 -0.671875 C 1.8125 -0.640625 1.910156 -0.625 2.015625 -0.625 C 2.085938 -0.625 2.148438 -0.628906 2.203125 -0.640625 C 2.253906 -0.648438 2.296875 -0.65625 2.328125 -0.65625 L 2.375 -0.03125 C 2.3125 -0.0078125 2.234375 0.0078125 2.140625 0.03125 C 2.054688 0.0507812 1.945312 0.0625 1.8125 0.0625 C 1.613281 0.0625 1.425781 0.0195312 1.25 -0.0625 C 1.070312 -0.15625 0.9375 -0.289062 0.84375 -0.46875 C 0.75 -0.644531 0.722656 -0.863281 0.765625 -1.125 L 1.25 -4.015625 L 0.546875 -4.015625 L 0.65625 -4.625 L 1.34375 -4.625 L 1.53125 -5.71875 L 2.234375 -5.71875 L 2.046875 -4.625 Z M 3.046875 -4.625 "/></g></g></g><g fill="#646464" fill-opacity="1"><g transform="translate(105.143337, 38.269958)"><g><path d="M 2.1875 0.09375 C 1.75 0.09375 1.382812 -0.00390625 1.09375 -0.203125 C 0.800781 -0.398438 0.597656 -0.675781 0.484375 -1.03125 C 0.367188 -1.382812 0.351562 -1.800781 0.4375 -2.28125 C 0.507812 -2.75 0.660156 -3.160156 0.890625 -3.515625 C 1.128906 -3.878906 1.421875 -4.160156 1.765625 -4.359375 C 2.109375 -4.566406 2.488281 -4.671875 2.90625 -4.671875 C 3.144531 -4.671875 3.375 -4.628906 3.59375 -4.546875 C 3.820312 -4.472656 4.015625 -4.347656 4.171875 -4.171875 C 4.335938 -3.992188 4.453125 -3.753906 4.515625 -3.453125 C 4.585938 -3.160156 4.585938 -2.800781 4.515625 -2.375 L 4.46875 -2.0625 L 1.109375 -2.0625 C 1.015625 -1.5 1.078125 -1.101562 1.296875 -0.875 C 1.515625 -0.65625 1.847656 -0.546875 2.296875 -0.546875 C 2.578125 -0.546875 2.828125 -0.601562 3.046875 -0.71875 C 3.265625 -0.84375 3.441406 -1.023438 3.578125 -1.265625 L 4.21875 -1.078125 C 4.050781 -0.722656 3.785156 -0.4375 3.421875 -0.21875 C 3.066406 -0.0078125 2.65625 0.09375 2.1875 0.09375 Z M 1.203125 -2.6875 L 3.84375 -2.6875 C 3.90625 -3.070312 3.84375 -3.394531 3.65625 -3.65625 C 3.476562 -3.914062 3.191406 -4.046875 2.796875 -4.046875 C 2.546875 -4.046875 2.304688 -3.976562 2.078125 -3.84375 C 1.847656 -3.707031 1.65625 -3.535156 1.5 -3.328125 C 1.34375 -3.117188 1.242188 -2.90625 1.203125 -2.6875 Z M 1.203125 -2.6875 "/></g></g></g><g fill="#646464" fill-opacity="1"><g transform="translate(110.496516, 38.269958)"><g/></g></g><g fill="#646464" fill-opacity="1"><g transform="translate(113.286184, 38.269958)"><g><path d="M -0.03125 1.734375 L 1.03125 -4.625 L 1.71875 -4.625 L 1.59375 -3.890625 L 1.6875 -3.890625 C 1.75 -3.960938 1.835938 -4.0625 1.953125 -4.1875 C 2.066406 -4.3125 2.21875 -4.421875 2.40625 -4.515625 C 2.601562 -4.617188 2.851562 -4.671875 3.15625 -4.671875 C 3.539062 -4.671875 3.863281 -4.570312 4.125 -4.375 C 4.394531 -4.1875 4.582031 -3.914062 4.6875 -3.5625 C 4.789062 -3.207031 4.804688 -2.785156 4.734375 -2.296875 C 4.648438 -1.804688 4.492188 -1.378906 4.265625 -1.015625 C 4.046875 -0.660156 3.769531 -0.382812 3.4375 -0.1875 C 3.113281 0 2.757812 0.09375 2.375 0.09375 C 2.070312 0.09375 1.835938 0.046875 1.671875 -0.046875 C 1.515625 -0.148438 1.398438 -0.265625 1.328125 -0.390625 C 1.253906 -0.515625 1.195312 -0.617188 1.15625 -0.703125 L 1.09375 -0.703125 L 0.6875 1.734375 Z M 1.34375 -2.3125 C 1.257812 -1.789062 1.300781 -1.363281 1.46875 -1.03125 C 1.644531 -0.707031 1.945312 -0.546875 2.375 -0.546875 C 2.675781 -0.546875 2.9375 -0.625 3.15625 -0.78125 C 3.382812 -0.9375 3.570312 -1.144531 3.71875 -1.40625 C 3.863281 -1.675781 3.960938 -1.976562 4.015625 -2.3125 C 4.066406 -2.632812 4.066406 -2.925781 4.015625 -3.1875 C 3.960938 -3.445312 3.847656 -3.65625 3.671875 -3.8125 C 3.492188 -3.96875 3.253906 -4.046875 2.953125 -4.046875 C 2.523438 -4.046875 2.171875 -3.882812 1.890625 -3.5625 C 1.609375 -3.238281 1.425781 -2.820312 1.34375 -2.3125 Z M 1.34375 -2.3125 "/></g></g></g><g fill="#646464" fill-opacity="1"><g transform="translate(118.85599, 38.269958)"><g><path d="M 1.609375 0.109375 C 1.316406 0.109375 1.0625 0.0546875 0.84375 -0.046875 C 0.625 -0.160156 0.457031 -0.320312 0.34375 -0.53125 C 0.238281 -0.75 0.210938 -1.007812 0.265625 -1.3125 C 0.304688 -1.570312 0.394531 -1.785156 0.53125 -1.953125 C 0.664062 -2.117188 0.828125 -2.25 1.015625 -2.34375 C 1.203125 -2.4375 1.40625 -2.503906 1.625 -2.546875 C 1.84375 -2.597656 2.0625 -2.640625 2.28125 -2.671875 C 2.570312 -2.703125 2.804688 -2.726562 2.984375 -2.75 C 3.160156 -2.769531 3.289062 -2.800781 3.375 -2.84375 C 3.46875 -2.894531 3.523438 -2.976562 3.546875 -3.09375 L 3.546875 -3.109375 C 3.597656 -3.410156 3.554688 -3.640625 3.421875 -3.796875 C 3.296875 -3.960938 3.070312 -4.046875 2.75 -4.046875 C 2.414062 -4.046875 2.132812 -3.972656 1.90625 -3.828125 C 1.675781 -3.679688 1.507812 -3.523438 1.40625 -3.359375 L 0.78125 -3.59375 C 0.945312 -3.875 1.144531 -4.09375 1.375 -4.25 C 1.601562 -4.40625 1.84375 -4.515625 2.09375 -4.578125 C 2.34375 -4.640625 2.582031 -4.671875 2.8125 -4.671875 C 2.957031 -4.671875 3.125 -4.65625 3.3125 -4.625 C 3.5 -4.59375 3.675781 -4.519531 3.84375 -4.40625 C 4.007812 -4.300781 4.132812 -4.140625 4.21875 -3.921875 C 4.300781 -3.703125 4.3125 -3.410156 4.25 -3.046875 L 3.734375 0 L 3.03125 0 L 3.140625 -0.625 L 3.109375 -0.625 C 3.035156 -0.519531 2.929688 -0.410156 2.796875 -0.296875 C 2.671875 -0.179688 2.507812 -0.0820312 2.3125 0 C 2.113281 0.0703125 1.878906 0.109375 1.609375 0.109375 Z M 1.8125 -0.53125 C 2.09375 -0.53125 2.335938 -0.582031 2.546875 -0.6875 C 2.765625 -0.800781 2.9375 -0.945312 3.0625 -1.125 C 3.195312 -1.300781 3.28125 -1.484375 3.3125 -1.671875 L 3.421875 -2.328125 C 3.378906 -2.285156 3.304688 -2.25 3.203125 -2.21875 C 3.097656 -2.195312 2.976562 -2.175781 2.84375 -2.15625 C 2.707031 -2.132812 2.578125 -2.113281 2.453125 -2.09375 C 2.328125 -2.082031 2.226562 -2.070312 2.15625 -2.0625 C 1.96875 -2.03125 1.785156 -1.988281 1.609375 -1.9375 C 1.441406 -1.882812 1.300781 -1.804688 1.1875 -1.703125 C 1.070312 -1.597656 1 -1.457031 0.96875 -1.28125 C 0.925781 -1.03125 0.984375 -0.84375 1.140625 -0.71875 C 1.304688 -0.59375 1.53125 -0.53125 1.8125 -0.53125 Z M 1.8125 -0.53125 "/></g></g></g><g fill="#646464" fill-opacity="1"><g transform="translate(124.040675, 38.269958)"><g><path d="M 1.84375 1.828125 C 1.5 1.828125 1.207031 1.78125 0.96875 1.6875 C 0.738281 1.601562 0.550781 1.488281 0.40625 1.34375 C 0.269531 1.207031 0.164062 1.0625 0.09375 0.90625 L 0.734375 0.5 C 0.785156 0.582031 0.847656 0.675781 0.921875 0.78125 C 0.992188 0.894531 1.109375 0.992188 1.265625 1.078125 C 1.421875 1.160156 1.640625 1.203125 1.921875 1.203125 C 2.296875 1.203125 2.617188 1.109375 2.890625 0.921875 C 3.171875 0.742188 3.347656 0.460938 3.421875 0.078125 L 3.5625 -0.859375 L 3.5 -0.859375 C 3.4375 -0.773438 3.347656 -0.671875 3.234375 -0.546875 C 3.117188 -0.421875 2.960938 -0.3125 2.765625 -0.21875 C 2.578125 -0.125 2.332031 -0.078125 2.03125 -0.078125 C 1.65625 -0.078125 1.332031 -0.160156 1.0625 -0.328125 C 0.800781 -0.503906 0.613281 -0.757812 0.5 -1.09375 C 0.382812 -1.4375 0.363281 -1.847656 0.4375 -2.328125 C 0.519531 -2.804688 0.671875 -3.21875 0.890625 -3.5625 C 1.117188 -3.914062 1.394531 -4.1875 1.71875 -4.375 C 2.050781 -4.570312 2.410156 -4.671875 2.796875 -4.671875 C 3.097656 -4.671875 3.328125 -4.617188 3.484375 -4.515625 C 3.648438 -4.421875 3.769531 -4.3125 3.84375 -4.1875 C 3.914062 -4.0625 3.972656 -3.960938 4.015625 -3.890625 L 4.09375 -3.890625 L 4.203125 -4.625 L 4.890625 -4.625 L 4.109375 0.125 C 4.046875 0.53125 3.90625 0.859375 3.6875 1.109375 C 3.46875 1.359375 3.195312 1.539062 2.875 1.65625 C 2.550781 1.769531 2.207031 1.828125 1.84375 1.828125 Z M 2.21875 -0.703125 C 2.632812 -0.703125 2.984375 -0.847656 3.265625 -1.140625 C 3.554688 -1.429688 3.742188 -1.832031 3.828125 -2.34375 C 3.910156 -2.84375 3.859375 -3.25 3.671875 -3.5625 C 3.492188 -3.882812 3.1875 -4.046875 2.75 -4.046875 C 2.445312 -4.046875 2.1875 -3.96875 1.96875 -3.8125 C 1.75 -3.65625 1.570312 -3.445312 1.4375 -3.1875 C 1.300781 -2.9375 1.207031 -2.65625 1.15625 -2.34375 C 1.070312 -1.863281 1.113281 -1.46875 1.28125 -1.15625 C 1.457031 -0.851562 1.769531 -0.703125 2.21875 -0.703125 Z M 2.21875 -0.703125 "/></g></g></g><g fill="#646464" fill-opacity="1"><g transform="translate(129.610486, 38.269958)"><g><path d="M 2.1875 0.09375 C 1.75 0.09375 1.382812 -0.00390625 1.09375 -0.203125 C 0.800781 -0.398438 0.597656 -0.675781 0.484375 -1.03125 C 0.367188 -1.382812 0.351562 -1.800781 0.4375 -2.28125 C 0.507812 -2.75 0.660156 -3.160156 0.890625 -3.515625 C 1.128906 -3.878906 1.421875 -4.160156 1.765625 -4.359375 C 2.109375 -4.566406 2.488281 -4.671875 2.90625 -4.671875 C 3.144531 -4.671875 3.375 -4.628906 3.59375 -4.546875 C 3.820312 -4.472656 4.015625 -4.347656 4.171875 -4.171875 C 4.335938 -3.992188 4.453125 -3.753906 4.515625 -3.453125 C 4.585938 -3.160156 4.585938 -2.800781 4.515625 -2.375 L 4.46875 -2.0625 L 1.109375 -2.0625 C 1.015625 -1.5 1.078125 -1.101562 1.296875 -0.875 C 1.515625 -0.65625 1.847656 -0.546875 2.296875 -0.546875 C 2.578125 -0.546875 2.828125 -0.601562 3.046875 -0.71875 C 3.265625 -0.84375 3.441406 -1.023438 3.578125 -1.265625 L 4.21875 -1.078125 C 4.050781 -0.722656 3.785156 -0.4375 3.421875 -0.21875 C 3.066406 -0.0078125 2.65625 0.09375 2.1875 0.09375 Z M 1.203125 -2.6875 L 3.84375 -2.6875 C 3.90625 -3.070312 3.84375 -3.394531 3.65625 -3.65625 C 3.476562 -3.914062 3.191406 -4.046875 2.796875 -4.046875 C 2.546875 -4.046875 2.304688 -3.976562 2.078125 -3.84375 C 1.847656 -3.707031 1.65625 -3.535156 1.5 -3.328125 C 1.34375 -3.117188 1.242188 -2.90625 1.203125 -2.6875 Z M 1.203125 -2.6875 "/></g></g></g><g fill="#646464" fill-opacity="1"><g transform="translate(134.963665, 38.269958)"><g><path d="M 4.140625 -3.578125 L 3.46875 -3.40625 C 3.4375 -3.507812 3.390625 -3.613281 3.328125 -3.71875 C 3.273438 -3.820312 3.1875 -3.90625 3.0625 -3.96875 C 2.945312 -4.03125 2.785156 -4.0625 2.578125 -4.0625 C 2.296875 -4.0625 2.050781 -3.992188 1.84375 -3.859375 C 1.632812 -3.734375 1.515625 -3.570312 1.484375 -3.375 C 1.453125 -3.207031 1.488281 -3.070312 1.59375 -2.96875 C 1.707031 -2.863281 1.894531 -2.773438 2.15625 -2.703125 L 2.8125 -2.53125 C 3.601562 -2.332031 3.945312 -1.914062 3.84375 -1.28125 C 3.789062 -1.019531 3.671875 -0.785156 3.484375 -0.578125 C 3.304688 -0.367188 3.070312 -0.203125 2.78125 -0.078125 C 2.488281 0.0351562 2.160156 0.09375 1.796875 0.09375 C 1.328125 0.09375 0.953125 -0.00390625 0.671875 -0.203125 C 0.398438 -0.410156 0.253906 -0.710938 0.234375 -1.109375 L 0.953125 -1.28125 C 0.984375 -0.78125 1.296875 -0.53125 1.890625 -0.53125 C 2.222656 -0.53125 2.5 -0.597656 2.71875 -0.734375 C 2.9375 -0.878906 3.0625 -1.050781 3.09375 -1.25 C 3.15625 -1.570312 2.960938 -1.789062 2.515625 -1.90625 L 1.78125 -2.078125 C 1.375 -2.179688 1.085938 -2.335938 0.921875 -2.546875 C 0.753906 -2.753906 0.703125 -3.019531 0.765625 -3.34375 C 0.804688 -3.601562 0.914062 -3.832031 1.09375 -4.03125 C 1.28125 -4.238281 1.507812 -4.394531 1.78125 -4.5 C 2.0625 -4.613281 2.363281 -4.671875 2.6875 -4.671875 C 3.144531 -4.671875 3.484375 -4.570312 3.703125 -4.375 C 3.929688 -4.175781 4.078125 -3.910156 4.140625 -3.578125 Z M 4.140625 -3.578125 "/></g></g></g><g fill="#646464" fill-opacity="1"><g transform="translate(139.799327, 38.269958)"><g/></g></g><g fill="#646464" fill-opacity="1"><g transform="translate(142.589, 38.269958)"><g><path d="M 2 0.078125 C 1.59375 0.078125 1.253906 0.00390625 0.984375 -0.140625 C 0.710938 -0.285156 0.519531 -0.488281 0.40625 -0.75 C 0.289062 -1.007812 0.265625 -1.304688 0.328125 -1.640625 C 0.378906 -2.015625 0.539062 -2.328125 0.8125 -2.578125 C 1.082031 -2.835938 1.421875 -3.09375 1.828125 -3.34375 C 1.648438 -3.601562 1.515625 -3.847656 1.421875 -4.078125 C 1.328125 -4.304688 1.300781 -4.554688 1.34375 -4.828125 C 1.414062 -5.242188 1.609375 -5.578125 1.921875 -5.828125 C 2.234375 -6.085938 2.613281 -6.21875 3.0625 -6.21875 C 3.375 -6.21875 3.628906 -6.15625 3.828125 -6.03125 C 4.035156 -5.914062 4.179688 -5.757812 4.265625 -5.5625 C 4.359375 -5.375 4.382812 -5.164062 4.34375 -4.9375 C 4.289062 -4.632812 4.171875 -4.375 3.984375 -4.15625 C 3.804688 -3.945312 3.578125 -3.75 3.296875 -3.5625 L 2.796875 -3.234375 L 3.859375 -1.59375 C 3.960938 -1.75 4.050781 -1.914062 4.125 -2.09375 C 4.207031 -2.28125 4.265625 -2.476562 4.296875 -2.6875 L 4.984375 -2.6875 C 4.910156 -2.25 4.800781 -1.898438 4.65625 -1.640625 C 4.507812 -1.378906 4.363281 -1.175781 4.21875 -1.03125 L 4.890625 0 L 4.046875 0 L 3.703125 -0.515625 C 3.460938 -0.316406 3.1875 -0.164062 2.875 -0.0625 C 2.570312 0.03125 2.28125 0.078125 2 0.078125 Z M 3.359375 -1.03125 L 2.171875 -2.8125 L 1.921875 -2.640625 C 1.609375 -2.441406 1.382812 -2.242188 1.25 -2.046875 C 1.125 -1.859375 1.054688 -1.722656 1.046875 -1.640625 C 1.015625 -1.441406 1.035156 -1.257812 1.109375 -1.09375 C 1.179688 -0.925781 1.300781 -0.789062 1.46875 -0.6875 C 1.632812 -0.59375 1.835938 -0.546875 2.078125 -0.546875 C 2.523438 -0.546875 2.953125 -0.707031 3.359375 -1.03125 Z M 2.453125 -3.75 L 2.90625 -4.046875 C 3.09375 -4.160156 3.25 -4.28125 3.375 -4.40625 C 3.5 -4.539062 3.582031 -4.71875 3.625 -4.9375 C 3.644531 -5.09375 3.597656 -5.242188 3.484375 -5.390625 C 3.367188 -5.535156 3.203125 -5.609375 2.984375 -5.609375 C 2.828125 -5.609375 2.679688 -5.566406 2.546875 -5.484375 C 2.421875 -5.410156 2.3125 -5.3125 2.21875 -5.1875 C 2.132812 -5.0625 2.082031 -4.9375 2.0625 -4.8125 C 2.03125 -4.644531 2.054688 -4.472656 2.140625 -4.296875 C 2.222656 -4.117188 2.328125 -3.9375 2.453125 -3.75 Z M 2.453125 -3.75 "/></g></g></g><g fill="#646464" fill-opacity="1"><g transform="translate(148.411547, 38.269958)"><g/></g></g><g fill="#646464" fill-opacity="1"><g transform="translate(151.20122, 38.269958)"><g><path d="M -0.03125 1.734375 L 1.03125 -4.625 L 1.71875 -4.625 L 1.59375 -3.890625 L 1.6875 -3.890625 C 1.75 -3.960938 1.835938 -4.0625 1.953125 -4.1875 C 2.066406 -4.3125 2.21875 -4.421875 2.40625 -4.515625 C 2.601562 -4.617188 2.851562 -4.671875 3.15625 -4.671875 C 3.539062 -4.671875 3.863281 -4.570312 4.125 -4.375 C 4.394531 -4.1875 4.582031 -3.914062 4.6875 -3.5625 C 4.789062 -3.207031 4.804688 -2.785156 4.734375 -2.296875 C 4.648438 -1.804688 4.492188 -1.378906 4.265625 -1.015625 C 4.046875 -0.660156 3.769531 -0.382812 3.4375 -0.1875 C 3.113281 0 2.757812 0.09375 2.375 0.09375 C 2.070312 0.09375 1.835938 0.046875 1.671875 -0.046875 C 1.515625 -0.148438 1.398438 -0.265625 1.328125 -0.390625 C 1.253906 -0.515625 1.195312 -0.617188 1.15625 -0.703125 L 1.09375 -0.703125 L 0.6875 1.734375 Z M 1.34375 -2.3125 C 1.257812 -1.789062 1.300781 -1.363281 1.46875 -1.03125 C 1.644531 -0.707031 1.945312 -0.546875 2.375 -0.546875 C 2.675781 -0.546875 2.9375 -0.625 3.15625 -0.78125 C 3.382812 -0.9375 3.570312 -1.144531 3.71875 -1.40625 C 3.863281 -1.675781 3.960938 -1.976562 4.015625 -2.3125 C 4.066406 -2.632812 4.066406 -2.925781 4.015625 -3.1875 C 3.960938 -3.445312 3.847656 -3.65625 3.671875 -3.8125 C 3.492188 -3.96875 3.253906 -4.046875 2.953125 -4.046875 C 2.523438 -4.046875 2.171875 -3.882812 1.890625 -3.5625 C 1.609375 -3.238281 1.425781 -2.820312 1.34375 -2.3125 Z M 1.34375 -2.3125 "/></g></g></g><g fill="#646464" fill-opacity="1"><g transform="translate(156.771032, 38.269958)"><g><path d="M 2.171875 0.09375 C 1.753906 0.09375 1.398438 -0.00390625 1.109375 -0.203125 C 0.828125 -0.410156 0.625 -0.695312 0.5 -1.0625 C 0.382812 -1.425781 0.363281 -1.847656 0.4375 -2.328125 C 0.519531 -2.804688 0.675781 -3.21875 0.90625 -3.5625 C 1.132812 -3.914062 1.414062 -4.1875 1.75 -4.375 C 2.09375 -4.570312 2.46875 -4.671875 2.875 -4.671875 C 3.300781 -4.671875 3.65625 -4.566406 3.9375 -4.359375 C 4.226562 -4.160156 4.429688 -3.878906 4.546875 -3.515625 C 4.671875 -3.148438 4.691406 -2.722656 4.609375 -2.234375 C 4.535156 -1.765625 4.382812 -1.351562 4.15625 -1 C 3.925781 -0.65625 3.640625 -0.382812 3.296875 -0.1875 C 2.960938 0 2.585938 0.09375 2.171875 0.09375 Z M 2.1875 -0.546875 C 2.507812 -0.546875 2.789062 -0.628906 3.03125 -0.796875 C 3.269531 -0.960938 3.460938 -1.179688 3.609375 -1.453125 C 3.765625 -1.722656 3.867188 -2.015625 3.921875 -2.328125 C 3.972656 -2.628906 3.972656 -2.910156 3.921875 -3.171875 C 3.867188 -3.429688 3.753906 -3.640625 3.578125 -3.796875 C 3.410156 -3.960938 3.171875 -4.046875 2.859375 -4.046875 C 2.535156 -4.046875 2.253906 -3.957031 2.015625 -3.78125 C 1.773438 -3.613281 1.578125 -3.394531 1.421875 -3.125 C 1.273438 -2.851562 1.175781 -2.554688 1.125 -2.234375 C 1.082031 -1.929688 1.085938 -1.648438 1.140625 -1.390625 C 1.191406 -1.140625 1.300781 -0.9375 1.46875 -0.78125 C 1.632812 -0.625 1.875 -0.546875 2.1875 -0.546875 Z M 2.1875 -0.546875 "/></g></g></g><g fill="#646464" fill-opacity="1"><g transform="translate(162.232521, 38.269958)"><g><path d="M 4.140625 -3.578125 L 3.46875 -3.40625 C 3.4375 -3.507812 3.390625 -3.613281 3.328125 -3.71875 C 3.273438 -3.820312 3.1875 -3.90625 3.0625 -3.96875 C 2.945312 -4.03125 2.785156 -4.0625 2.578125 -4.0625 C 2.296875 -4.0625 2.050781 -3.992188 1.84375 -3.859375 C 1.632812 -3.734375 1.515625 -3.570312 1.484375 -3.375 C 1.453125 -3.207031 1.488281 -3.070312 1.59375 -2.96875 C 1.707031 -2.863281 1.894531 -2.773438 2.15625 -2.703125 L 2.8125 -2.53125 C 3.601562 -2.332031 3.945312 -1.914062 3.84375 -1.28125 C 3.789062 -1.019531 3.671875 -0.785156 3.484375 -0.578125 C 3.304688 -0.367188 3.070312 -0.203125 2.78125 -0.078125 C 2.488281 0.0351562 2.160156 0.09375 1.796875 0.09375 C 1.328125 0.09375 0.953125 -0.00390625 0.671875 -0.203125 C 0.398438 -0.410156 0.253906 -0.710938 0.234375 -1.109375 L 0.953125 -1.28125 C 0.984375 -0.78125 1.296875 -0.53125 1.890625 -0.53125 C 2.222656 -0.53125 2.5 -0.597656 2.71875 -0.734375 C 2.9375 -0.878906 3.0625 -1.050781 3.09375 -1.25 C 3.15625 -1.570312 2.960938 -1.789062 2.515625 -1.90625 L 1.78125 -2.078125 C 1.375 -2.179688 1.085938 -2.335938 0.921875 -2.546875 C 0.753906 -2.753906 0.703125 -3.019531 0.765625 -3.34375 C 0.804688 -3.601562 0.914062 -3.832031 1.09375 -4.03125 C 1.28125 -4.238281 1.507812 -4.394531 1.78125 -4.5 C 2.0625 -4.613281 2.363281 -4.671875 2.6875 -4.671875 C 3.144531 -4.671875 3.484375 -4.570312 3.703125 -4.375 C 3.929688 -4.175781 4.078125 -3.910156 4.140625 -3.578125 Z M 4.140625 -3.578125 "/></g></g></g><g fill="#646464" fill-opacity="1"><g transform="translate(167.068183, 38.269958)"><g><path d="M 3.046875 -4.625 L 2.953125 -4.015625 L 1.953125 -4.015625 L 1.5 -1.328125 C 1.46875 -1.117188 1.472656 -0.960938 1.515625 -0.859375 C 1.554688 -0.765625 1.625 -0.703125 1.71875 -0.671875 C 1.8125 -0.640625 1.910156 -0.625 2.015625 -0.625 C 2.085938 -0.625 2.148438 -0.628906 2.203125 -0.640625 C 2.253906 -0.648438 2.296875 -0.65625 2.328125 -0.65625 L 2.375 -0.03125 C 2.3125 -0.0078125 2.234375 0.0078125 2.140625 0.03125 C 2.054688 0.0507812 1.945312 0.0625 1.8125 0.0625 C 1.613281 0.0625 1.425781 0.0195312 1.25 -0.0625 C 1.070312 -0.15625 0.9375 -0.289062 0.84375 -0.46875 C 0.75 -0.644531 0.722656 -0.863281 0.765625 -1.125 L 1.25 -4.015625 L 0.546875 -4.015625 L 0.65625 -4.625 L 1.34375 -4.625 L 1.53125 -5.71875 L 2.234375 -5.71875 L 2.046875 -4.625 Z M 3.046875 -4.625 "/></g></g></g><g clip-path="url(#c5525662fb)"><path fill="#000000" d="M 19.199219 36.246094 L 19.199219 37.65625 L 22.808594 34.746094 L 19.199219 31.835938 L 19.199219 33.238281 C 19.199219 33.238281 12.792969 34.523438 10.847656 29.484375 C 10.847656 29.484375 11.554688 35.9375 19.199219 36.246094 " fill-opacity="1" fill-rule="nonzero"/></g><g clip-path="url(#89664478fd)"><path fill="#ec5e65" d="M 22.824219 20.328125 L 40 20.328125 L 40 37.636719 L 22.824219 37.636719 Z M 22.824219 20.328125 " fill-opacity="1" fill-rule="nonzero"/></g><g clip-path="url(#e307fa09bd)"><path fill="#31b2fe" d="M 7.5 12.148438 L 24.675781 12.148438 L 24.675781 29.460938 L 7.5 29.460938 Z M 7.5 12.148438 " fill-opacity="1" fill-rule="nonzero"/></g><g clip-path="url(#30f4bf708e)"><path fill="#135c87" d="M 22.824219 20.328125 L 24.675781 20.328125 L 24.675781 29.484375 L 22.824219 29.484375 Z M 22.824219 20.328125 " fill-opacity="1" fill-rule="nonzero"/></g><g fill="#f5fff5" fill-opacity="1"><g transform="translate(11.970321, 24.140274)"><g><path d="M 8.421875 -6.9375 L 7.3125 -6.9375 L 7.3125 -5.203125 C 7.3125 -4.734375 7.269531 -4.363281 7.1875 -4.09375 C 7.113281 -3.820312 6.972656 -3.582031 6.765625 -3.375 C 6.554688 -3.175781 6.300781 -3.019531 6 -2.90625 C 5.695312 -2.800781 5.3125 -2.726562 4.84375 -2.6875 L 4.53125 -4.171875 C 4.894531 -4.222656 5.132812 -4.304688 5.25 -4.421875 C 5.34375 -4.503906 5.40625 -4.613281 5.4375 -4.75 C 5.476562 -4.882812 5.5 -5.113281 5.5 -5.4375 L 5.5 -6.9375 L 2.734375 -6.9375 L 2.734375 -4.734375 C 2.734375 -4.390625 2.742188 -4.101562 2.765625 -3.875 C 2.796875 -3.65625 2.859375 -3.46875 2.953125 -3.3125 C 3.046875 -3.15625 3.179688 -3.003906 3.359375 -2.859375 C 3.535156 -2.722656 3.78125 -2.566406 4.09375 -2.390625 L 5.984375 -1.296875 C 6.535156 -0.984375 6.90625 -0.671875 7.09375 -0.359375 C 7.289062 -0.046875 7.390625 0.328125 7.390625 0.765625 C 7.390625 1.128906 7.304688 1.484375 7.140625 1.828125 C 6.984375 2.171875 6.820312 2.457031 6.65625 2.6875 L 5.15625 1.828125 C 5.257812 1.734375 5.347656 1.597656 5.421875 1.421875 C 5.503906 1.253906 5.546875 1.097656 5.546875 0.953125 C 5.546875 0.765625 5.507812 0.601562 5.4375 0.46875 C 5.375 0.34375 5.25 0.207031 5.0625 0.0625 C 4.882812 -0.0703125 4.609375 -0.242188 4.234375 -0.453125 L 2.59375 -1.40625 C 2.25 -1.601562 1.953125 -1.8125 1.703125 -2.03125 C 1.453125 -2.25 1.257812 -2.515625 1.125 -2.828125 C 1.0625 -3.003906 1.007812 -3.207031 0.96875 -3.4375 C 0.9375 -3.675781 0.921875 -3.984375 0.921875 -4.359375 L 0.921875 -6.9375 L 0 -6.9375 L 0 -8.421875 L 8.421875 -8.421875 Z M 8.421875 -6.9375 "/></g></g></g><g fill="#f5fff5" fill-opacity="1"><g transform="translate(25.948226, 34.282404)"><g><path d="M 2.75 0 L 0.34375 0 L 4.015625 -10.625 L 6.90625 -10.625 L 10.578125 0 L 8.171875 0 L 7.375 -2.421875 L 3.546875 -2.421875 Z M 4.109375 -4.171875 L 6.8125 -4.171875 L 5.5 -8.203125 L 5.421875 -8.203125 Z M 4.109375 -4.171875 "/></g></g></g><g clip-path="url(#fa3e2039ec)"><path fill="#000000" d="M 28.292969 13.558594 L 28.292969 12.148438 L 24.683594 15.058594 L 28.292969 17.96875 L 28.292969 16.566406 C 28.292969 16.566406 34.699219 15.28125 36.644531 20.320312 C 36.644531 20.320312 35.9375 13.867188 28.292969 13.558594 " fill-opacity="1" fill-rule="nonzero"/></g></svg>